<svg id="eQtpLiA84Vh1" xmlns="http://www.w3.org/2000/svg" xmlns:xlink="http://www.w3.org/1999/xlink" viewBox="0 0 1200 1200" shape-rendering="geometricPrecision" text-rendering="geometricPrecision" project-id="3931f7c659024ce2bed217f2af268373" export-id="da720cfb0c9d4efea03a972a4af2b3bc" cached="false"><g transform="matrix(-1 0 0 1 1200.00705 0)"><g transform="matrix(-1.026659 0 0 1.026659 1214.900729-7.295974)"><polygon points="50,23.15 19,76.85 81,76.85 50,23.15" transform="matrix(4.615221 0 0 4.615211 369.23895 98.793905)" fill="#b4232c"/><polygon points="50,23.15 19,76.85 81,76.85 50,23.15" transform="matrix(4.615221 0 0 4.615211 556.938923 426.813275)" fill="#b4232c" stroke="#b4232c"/><polygon points="50,23.15 19,76.85 81,76.85 50,23.15" transform="matrix(4.615221 0 0 4.615211 179.716648 426.813275)" fill="#b4232c"/><polygon points="50,23.15 19,76.85 81,76.85 50,23.15" transform="matrix(-4.615221 0 0-4.615211 830.76105 860.999428)" fill="#b4232c" stroke="#b4232c"/><path d="" fill="none" stroke="#3f5787" stroke-width="2.4"/><g transform="translate(.000001 0)"><path d="M252.625803,121.97309c89.151781-42.765563,262.868535-43.492129,347.374197,0v-114.141359C491.249838,-0.116253,318.583196,58.52436,252.625803,121.97309Z" transform="translate(.000003 0.000002)" fill="#b4232c" stroke="#b4232c" stroke-width="2.4"/><path d="M252.625803,121.97309c89.151781-42.765563,262.868535-43.492129,347.374197,0v-114.141359C491.249838,-0.116253,318.583196,58.52436,252.625803,121.97309Z" transform="matrix(-1 0 0 1 1200.000003 0.000002)" fill="#b4232c" stroke="#b4232c" stroke-width="2.4"/></g><g transform="matrix(-.5 0.866025-.866025-.5 1407.179225 365.997023)"><path d="M252.625803,121.97309c89.151781-42.765563,262.868535-43.492129,347.374197,0v-114.141359C491.249838,-0.116253,318.583196,58.52436,252.625803,121.97309Z" transform="translate(.000003 0.000002)" fill="#b4232c" stroke="#b4232c" stroke-width="2.4"/><path d="M252.625803,121.97309c89.151781-42.765563,262.868535-43.492129,347.374197,0v-114.141359C491.249838,-0.116253,318.583196,58.52436,252.625803,121.97309Z" transform="matrix(-1 0 0 1 1200.000003 0.000002)" fill="#b4232c" stroke="#b4232c" stroke-width="2.4"/></g><g transform="matrix(-.5-.866025 0.866025-.5 390.688307 1405.227532)"><path d="M252.625803,121.97309c89.151781-42.765563,262.868535-43.492129,347.374197,0v-114.141359C491.249838,-0.116253,318.583196,58.52436,252.625803,121.97309Z" transform="translate(.000003 0.000002)" fill="#b4232c" stroke="#b4232c" stroke-width="2.4"/><path d="M252.625803,121.97309c89.151781-42.765563,262.868535-43.492129,347.374197,0v-114.141359C491.249838,-0.116253,318.583196,58.52436,252.625803,121.97309Z" transform="matrix(-1 0 0 1 1200.000003 0.000002)" fill="#b4232c" stroke="#b4232c" stroke-width="2.4"/></g><path d="M206.262587,738.339551C114.21174,511.21068,252.494058,216.268932,544.970137,175.030327c-346.982272-45.521728-682.170208,101.225444-338.70755,563.309224Z" fill="#b4232c" stroke="#b4232c" stroke-width="2.4"/><path d="M206.262587,738.339551C114.21174,511.21068,252.494058,216.268932,544.970137,175.030327c-346.982272-45.521728-682.170208,101.225444-338.70755,563.309224Z" transform="matrix(-.5 0.866025-.866025-.5 1406.072943 365.782562)" fill="#b4232c" stroke="#b4232c" stroke-width="2.4"/><path d="M206.262587,738.339551C114.21174,511.21068,252.494058,216.268932,544.970137,175.030327c-346.982272-45.521728-682.170208,101.225444-338.70755,563.309224Z" transform="matrix(-.5-.866025 0.866025-.5 385.729356 1402.711522)" fill="#b4232c" stroke="#b4232c" stroke-width="2.4"/></g><g transform="matrix(1.026659 0 0 1.026659-14.893678-7.287831)"><polygon points="50,23.15 19,76.85 81,76.85 50,23.15" transform="matrix(4.615221 0 0 4.615211 369.23895 98.793905)" fill="#b4232c"/><polygon points="50,23.15 19,76.85 81,76.85 50,23.15" transform="matrix(4.615221 0 0 4.615211 556.938923 426.813275)" fill="#b4232c" stroke="#b4232c"/><polygon points="50,23.15 19,76.85 81,76.85 50,23.15" transform="matrix(4.615221 0 0 4.615211 179.716648 426.813275)" fill="#b4232c"/><polygon points="50,23.15 19,76.85 81,76.85 50,23.15" transform="matrix(-4.615221 0 0-4.615211 830.76105 860.999428)" fill="#b4232c" stroke="#b4232c"/><path d="" fill="none" stroke="#3f5787" stroke-width="2.4"/><g transform="translate(.000001 0)"><path d="M252.625803,121.97309c89.151781-42.765563,262.868535-43.492129,347.374197,0v-114.141359C491.249838,-0.116253,318.583196,58.52436,252.625803,121.97309Z" transform="translate(.000003 0.000002)" fill="#b4232c" stroke="#b4232c" stroke-width="2.4"/><path d="M252.625803,121.97309c89.151781-42.765563,262.868535-43.492129,347.374197,0v-114.141359C491.249838,-0.116253,318.583196,58.52436,252.625803,121.97309Z" transform="matrix(-1 0 0 1 1200.000003 0.000002)" fill="#b4232c" stroke="#b4232c" stroke-width="2.4"/></g><g transform="matrix(-.5 0.866025-.866025-.5 1407.179225 365.997023)"><path d="M252.625803,121.97309c89.151781-42.765563,262.868535-43.492129,347.374197,0v-114.141359C491.249838,-0.116253,318.583196,58.52436,252.625803,121.97309Z" transform="translate(.000003 0.000002)" fill="#b4232c" stroke="#b4232c" stroke-width="2.4"/><path d="M252.625803,121.97309c89.151781-42.765563,262.868535-43.492129,347.374197,0v-114.141359C491.249838,-0.116253,318.583196,58.52436,252.625803,121.97309Z" transform="matrix(-1 0 0 1 1200.000003 0.000002)" fill="#b4232c" stroke="#b4232c" stroke-width="2.4"/></g><g transform="matrix(-.5-.866025 0.866025-.5 390.688307 1405.227532)"><path d="M252.625803,121.97309c89.151781-42.765563,262.868535-43.492129,347.374197,0v-114.141359C491.249838,-0.116253,318.583196,58.52436,252.625803,121.97309Z" transform="translate(.000003 0.000002)" fill="#b4232c" stroke="#b4232c" stroke-width="2.4"/><path d="M252.625803,121.97309c89.151781-42.765563,262.868535-43.492129,347.374197,0v-114.141359C491.249838,-0.116253,318.583196,58.52436,252.625803,121.97309Z" transform="matrix(-1 0 0 1 1200.000003 0.000002)" fill="#b4232c" stroke="#b4232c" stroke-width="2.4"/></g><path d="M206.262587,738.339551C114.21174,511.21068,252.494058,216.268932,544.970137,175.030327c-346.982272-45.521728-682.170208,101.225444-338.70755,563.309224Z" fill="#b4232c" stroke="#b4232c" stroke-width="2.4"/><path d="M206.262587,738.339551C114.21174,511.21068,252.494058,216.268932,544.970137,175.030327c-346.982272-45.521728-682.170208,101.225444-338.70755,563.309224Z" transform="matrix(-.5 0.866025-.866025-.5 1406.072943 365.782562)" fill="#b4232c" stroke="#b4232c" stroke-width="2.4"/><path d="M206.262587,738.339551C114.21174,511.21068,252.494058,216.268932,544.970137,175.030327c-346.982272-45.521728-682.170208,101.225444-338.70755,563.309224Z" transform="matrix(-.5-.866025 0.866025-.5 385.729356 1402.711522)" fill="#b4232c" stroke="#b4232c" stroke-width="2.4"/></g></g></svg>
