<svg width="360" height="240" viewBox="0 0 360 240" xmlns="http://www.w3.org/2000/svg" role="img" aria-labelledby="title desc">
  <title id="title">Compact kitchen redesign illustration</title>
  <desc id="desc">Modular kitchen blocks with layered shelving and storage.</desc>
  <rect width="360" height="240" rx="18" fill="#f8f2ec"/>
  <rect x="34" y="42" width="292" height="160" rx="18" fill="#ffffff" stroke="#e5d7c4" stroke-width="3"/>
  <rect x="70" y="70" width="68" height="120" rx="12" fill="#25d366" opacity="0.18"/>
  <rect x="148" y="70" width="72" height="74" rx="12" fill="#128c7e" opacity="0.18"/>
  <rect x="236" y="96" width="54" height="94" rx="10" fill="#d78287" opacity="0.3"/>
  <rect x="152" y="150" width="148" height="40" rx="14" fill="#0f4d46" opacity="0.15"/>
  <rect x="82" y="88" width="44" height="12" rx="4" fill="#ffffff" opacity="0.75"/>
  <rect x="82" y="108" width="44" height="34" rx="6" fill="#ffffff" opacity="0.65"/>
  <rect x="156" y="84" width="56" height="12" rx="6" fill="#ffffff" opacity="0.65"/>
  <rect x="156" y="106" width="24" height="24" rx="6" fill="#ffffff" opacity="0.75"/>
  <rect x="188" y="106" width="24" height="24" rx="6" fill="#ffffff" opacity="0.75"/>
  <rect x="240" y="110" width="46" height="18" rx="6" fill="#ffffff" opacity="0.75"/>
  <rect x="240" y="138" width="46" height="36" rx="6" fill="#fff3ed" stroke="#c36f6d" stroke-width="2" opacity="0.8"/>
  <rect x="70" y="176" width="220" height="18" rx="9" fill="#263d42" opacity="0.12"/>
  <circle cx="210" cy="74" r="10" fill="#b4232c" opacity="0.4"/>
  <circle cx="210" cy="74" r="4" fill="#b4232c"/>
</svg>
