<svg width="360" height="240" viewBox="0 0 360 240" xmlns="http://www.w3.org/2000/svg" role="img" aria-labelledby="title desc">
  <title id="title">Stone countertop upgrade illustration</title>
  <desc id="desc">Kitchen counters with stone slabs and inset cooktop.</desc>
  <rect width="360" height="240" rx="18" fill="#f7f4f0"/>
  <rect x="38" y="40" width="284" height="164" rx="18" fill="#ffffff" stroke="#e3dacf" stroke-width="3"/>
  <rect x="70" y="156" width="220" height="28" rx="12" fill="#b4232c" opacity="0.18"/>
  <rect x="70" y="112" width="220" height="38" rx="12" fill="#263d42" opacity="0.14"/>
  <rect x="70" y="82" width="220" height="34" rx="12" fill="#128c7e" opacity="0.2"/>
  <rect x="102" y="122" width="52" height="20" rx="6" fill="#ffffff" opacity="0.75"/>
  <rect x="162" y="122" width="52" height="20" rx="6" fill="#ffffff" opacity="0.75"/>
  <rect x="222" y="122" width="52" height="20" rx="6" fill="#ffffff" opacity="0.75"/>
  <rect x="122" y="90" width="116" height="18" rx="9" fill="#0f4d46" opacity="0.25"/>
  <circle cx="144" cy="152" r="10" fill="#d78287" opacity="0.4"/>
  <circle cx="182" cy="152" r="10" fill="#d78287" opacity="0.32"/>
  <circle cx="220" cy="152" r="10" fill="#d78287" opacity="0.25"/>
  <path d="M84 176h192" stroke="#cbbfae" stroke-width="6" stroke-linecap="round"/>
  <rect x="56" y="188" width="248" height="12" rx="6" fill="#263d42" opacity="0.1"/>
</svg>
