<svg width="360" height="240" viewBox="0 0 360 240" xmlns="http://www.w3.org/2000/svg" role="img" aria-labelledby="title desc">
  <title id="title">Shaker kitchen refresh illustration</title>
  <desc id="desc">Classic shaker doors with dual-tone finishes and shelving.</desc>
  <rect width="360" height="240" rx="18" fill="#f2f6fb"/>
  <rect x="36" y="42" width="288" height="160" rx="18" fill="#ffffff" stroke="#d6e2f0" stroke-width="3"/>
  <rect x="66" y="74" width="228" height="50" rx="12" fill="#0f4d46" opacity="0.16"/>
  <rect x="66" y="132" width="228" height="62" rx="14" fill="#1c5060" opacity="0.22"/>
  <rect x="84" y="140" width="44" height="42" rx="8" fill="#ffffff" opacity="0.8"/>
  <rect x="140" y="140" width="44" height="42" rx="8" fill="#ffffff" opacity="0.8"/>
  <rect x="196" y="140" width="44" height="42" rx="8" fill="#ffffff" opacity="0.8"/>
  <rect x="252" y="140" width="30" height="42" rx="8" fill="#d78287" opacity="0.35"/>
  <rect x="90" y="98" width="52" height="10" rx="5" fill="#ffffff" opacity="0.75"/>
  <rect x="150" y="98" width="52" height="10" rx="5" fill="#ffffff" opacity="0.75"/>
  <rect x="210" y="98" width="52" height="10" rx="5" fill="#ffffff" opacity="0.75"/>
  <path d="M276 96v62" stroke="#b4232c" stroke-width="4" stroke-linecap="round" stroke-dasharray="6 8" opacity="0.6"/>
  <circle cx="256" cy="84" r="12" fill="#25d366" opacity="0.24"/>
  <circle cx="256" cy="84" r="5" fill="#25d366"/>
  <rect x="62" y="186" width="236" height="12" rx="6" fill="#263d42" opacity="0.12"/>
</svg>
