<svg width="360" height="240" viewBox="0 0 360 240" xmlns="http://www.w3.org/2000/svg" role="img" aria-labelledby="title desc">
  <title id="title">Kitchen remodel illustration</title>
  <desc id="desc">Stylised kitchen elevation with cabinetry, hob and pendant lights.</desc>
  <rect width="360" height="240" rx="18" fill="#f5f1ec"/>
  <rect x="36" y="44" width="288" height="152" rx="18" fill="#ffffff" stroke="#e1d6ca" stroke-width="3"/>
  <rect x="64" y="152" width="232" height="32" rx="10" fill="#263d42" opacity="0.12"/>
  <rect x="72" y="100" width="216" height="58" rx="12" fill="#d78287" opacity="0.28"/>
  <rect x="72" y="76" width="216" height="20" rx="8" fill="#128c7e" opacity="0.18"/>
  <rect x="120" y="132" width="44" height="52" rx="6" fill="#0f4d46" opacity="0.25"/>
  <rect x="180" y="132" width="44" height="52" rx="6" fill="#0f4d46" opacity="0.25"/>
  <rect x="240" y="132" width="44" height="52" rx="6" fill="#0f4d46" opacity="0.25"/>
  <rect x="120" y="116" width="44" height="12" rx="4" fill="#ffffff" opacity="0.8"/>
  <rect x="180" y="116" width="44" height="12" rx="4" fill="#ffffff" opacity="0.8"/>
  <rect x="240" y="116" width="44" height="12" rx="4" fill="#ffffff" opacity="0.8"/>
  <rect x="164" y="94" width="32" height="18" rx="6" fill="#b4232c" opacity="0.24"/>
  <circle cx="130" cy="72" r="10" fill="#b4232c"/>
  <circle cx="180" cy="72" r="10" fill="#b4232c"/>
  <circle cx="230" cy="72" r="10" fill="#b4232c"/>
  <rect x="128" y="54" width="4" height="18" rx="2" fill="#b4232c"/>
  <rect x="178" y="54" width="4" height="18" rx="2" fill="#b4232c"/>
  <rect x="228" y="54" width="4" height="18" rx="2" fill="#b4232c"/>
  <rect x="92" y="132" width="20" height="52" rx="6" fill="#25d366" opacity="0.25"/>
  <rect x="288" y="132" width="20" height="52" rx="6" fill="#25d366" opacity="0.25"/>
  <rect x="56" y="188" width="248" height="12" rx="6" fill="#263d42" opacity="0.12"/>
</svg>
