<svg width="360" height="240" viewBox="0 0 360 240" xmlns="http://www.w3.org/2000/svg" role="img" aria-labelledby="title desc">
  <title id="title">Bathroom renovation illustration</title>
  <desc id="desc">Stylised bathroom with walk-in shower, vanity and feature tiling.</desc>
  <rect width="360" height="240" rx="18" fill="#f2f6f7"/>
  <rect x="38" y="40" width="284" height="164" rx="18" fill="#ffffff" stroke="#dbe6e8" stroke-width="3"/>
  <rect x="68" y="156" width="224" height="28" rx="12" fill="#128c7e" opacity="0.18"/>
  <rect x="68" y="96" width="110" height="50" rx="12" fill="#25d366" opacity="0.16"/>
  <rect x="190" y="84" width="90" height="92" rx="12" fill="#d78287" opacity="0.3"/>
  <rect x="214" y="100" width="42" height="56" rx="8" fill="#ffffff" opacity="0.75"/>
  <rect x="192" y="84" width="86" height="10" rx="5" fill="#0f4d46" opacity="0.2"/>
  <path d="M90 110h60c12 0 20 10 20 22v6c0 12-8 22-20 22H90c-12 0-20-10-20-22v-6c0-12 8-22 20-22Z" fill="#0f4d46" opacity="0.18"/>
  <path d="M88 118h64" stroke="#ffffff" stroke-width="4" stroke-linecap="round" opacity="0.6"/>
  <path d="M244 110v52" stroke="#128c7e" stroke-width="4" stroke-linecap="round" stroke-dasharray="6 8" opacity="0.6"/>
  <path d="M202 110v52" stroke="#128c7e" stroke-width="4" stroke-linecap="round" stroke-dasharray="6 8" opacity="0.4"/>
  <circle cx="110" cy="86" r="12" fill="#b4232c" opacity="0.25"/>
  <circle cx="110" cy="86" r="6" fill="#b4232c"/>
  <rect x="250" y="120" width="26" height="44" rx="6" fill="#0f4d46" opacity="0.22"/>
  <rect x="64" y="188" width="232" height="12" rx="6" fill="#0f4d46" opacity="0.12"/>
</svg>
