<svg width="360" height="240" viewBox="0 0 360 240" xmlns="http://www.w3.org/2000/svg" role="img" aria-labelledby="title desc">
  <title id="title">Custom cabinetry illustration</title>
  <desc id="desc">Workshop shelves with bespoke cabinetry pieces and tools.</desc>
  <rect width="360" height="240" rx="18" fill="#f6f1e8"/>
  <rect x="40" y="38" width="280" height="164" rx="18" fill="#ffffff" stroke="#e3d5c0" stroke-width="3"/>
  <rect x="70" y="70" width="72" height="108" rx="12" fill="#d78287" opacity="0.28"/>
  <rect x="190" y="70" width="88" height="108" rx="12" fill="#128c7e" opacity="0.18"/>
  <rect x="90" y="88" width="32" height="16" rx="4" fill="#ffffff" opacity="0.75"/>
  <rect x="90" y="118" width="32" height="36" rx="6" fill="#fff3ed" stroke="#c36f6d" stroke-width="2" opacity="0.8"/>
  <rect x="208" y="88" width="52" height="24" rx="6" fill="#ffffff" opacity="0.7"/>
  <rect x="208" y="122" width="52" height="42" rx="8" fill="#f5eee7" stroke="#128c7e" stroke-width="2" opacity="0.8"/>
  <path d="M154 70v108" stroke="#d8c6aa" stroke-width="4" stroke-linecap="round" stroke-dasharray="10 10"/>
  <rect x="136" y="84" width="24" height="24" rx="6" fill="#0f4d46" opacity="0.2"/>
  <rect x="136" y="120" width="24" height="46" rx="6" fill="#0f4d46" opacity="0.12"/>
  <circle cx="274" cy="120" r="14" fill="#b4232c" opacity="0.28"/>
  <path d="M266 118h12l6 22" stroke="#88272d" stroke-width="3" stroke-linecap="round" stroke-linejoin="round" fill="none"/>
  <path d="M74 188h212" stroke="#d8c6aa" stroke-width="6" stroke-linecap="round"/>
  <rect x="56" y="188" width="248" height="12" rx="6" fill="#0f4d46" opacity="0.12"/>
</svg>
